<?xml version="1.0" encoding="UTF-8"?>
<svg width="308px" height="308px" viewBox="0 0 308 308" version="1.1" xmlns="http://www.w3.org/2000/svg" xmlns:xlink="http://www.w3.org/1999/xlink">
    <title>zuplo</title>
    <g id="Page-1" stroke="none" stroke-width="1" fill="none" fill-rule="evenodd">
        <g id="zuplo" fill-rule="nonzero">
            <rect id="Rectangle" x="0" y="0" width="308" height="308"></rect>
            <path d="M214.523,182.007 L140.435,182.007 L219.374,102.931 C220.118,102.186 220.624,101.235 220.83,100.201 C221.035,99.167 220.93,98.095 220.527,97.12 C220.124,96.146 219.442,95.313 218.567,94.727 C217.692,94.141 216.663,93.828 215.61,93.828 L90.239,93.828 L90.239,41.364 L227.754,41.364 C237.849,41.241 247.771,43.987 256.371,49.286 C264.97,54.584 271.894,62.216 276.338,71.297 C280.926,81.009 282.401,91.906 280.559,102.491 C278.717,113.077 273.649,122.831 266.051,130.415 L214.523,182.007 Z" id="Path" fill="#FF00BD"></path>
            <path d="M90.24,119.097 L164.332,119.097 L85.551,198.014 C84.795,198.773 84.279,199.74 84.071,200.792 C83.862,201.844 83.97,202.935 84.379,203.926 C84.789,204.917 85.482,205.764 86.372,206.36 C87.262,206.957 88.309,207.276 89.38,207.277 L214.397,207.277 L214.397,259.741 L77.016,259.741 C66.921,259.863 56.999,257.116 48.4,251.818 C39.801,246.52 32.877,238.888 28.432,229.807 C23.844,220.095 22.37,209.198 24.213,198.613 C26.055,188.027 31.124,178.273 38.723,170.689 L90.24,119.097 Z" id="Path" fill="#FF00BD"></path>
        </g>
    </g>
</svg>